<svg width="209" height="52" viewBox="0 0 209 52" fill="none" xmlns="http://www.w3.org/2000/svg">
<rect y="6" width="41" height="40" rx="3" fill="#152742"/>
<path d="M20.8164 29.6602L25.084 19.2207H29.3027V19.7578C28.6452 19.7643 28.1829 19.849 27.916 20.0117C27.6491 20.1745 27.4928 20.4089 27.4473 20.7148C27.4017 21.0208 27.3789 21.584 27.3789 22.4043V30.8418C27.3789 31.2715 27.4342 31.597 27.5449 31.8184C27.6621 32.0397 27.8477 32.196 28.1016 32.2871C28.3555 32.3717 28.7559 32.4303 29.3027 32.4629V33H23.0039V32.4629C23.6289 32.4564 24.0814 32.3783 24.3613 32.2285C24.6413 32.0788 24.8073 31.8802 24.8594 31.6328C24.9115 31.3789 24.9375 30.9622 24.9375 30.3828V20.959L20.084 33H19.5176L14.7227 21.3398V29.3379C14.7227 30.2363 14.8919 30.9395 15.2305 31.4473C15.5755 31.9486 16.1452 32.2871 16.9395 32.4629V33H11.998V32.4629C12.6947 32.3913 13.2318 32.1211 13.6094 31.6523C13.987 31.1771 14.1758 30.513 14.1758 29.6602V20.5977C13.9089 20.3047 13.5898 20.0866 13.2188 19.9434C12.8477 19.8001 12.4408 19.7383 11.998 19.7578V19.2207H16.4609L20.8164 29.6602ZM25.8848 30.7441V21.3203C25.8848 20.5521 25.9434 20.0312 26.0605 19.7578C25.8001 19.7773 25.6146 19.8522 25.5039 19.9824C25.3932 20.1061 25.3249 20.2819 25.2988 20.5098C25.2728 20.7311 25.2598 21.0892 25.2598 21.584V30.998C25.2598 31.4668 25.2109 31.7891 25.1133 31.9648C25.0221 32.1341 24.8301 32.3001 24.5371 32.4629H24.8789C25.3281 32.4629 25.6081 32.3359 25.7188 32.082C25.8294 31.8216 25.8848 31.3757 25.8848 30.7441ZM13.8828 19.7578H13.5215C13.9251 19.9141 14.2409 20.1322 14.4688 20.4121C14.7031 20.6855 14.9408 21.1152 15.1816 21.7012L19.7031 32.4629C19.8464 32.2025 19.918 31.9746 19.918 31.7793C19.918 31.597 19.8464 31.3366 19.7031 30.998L15.8164 21.5645C15.5755 20.946 15.3184 20.4902 15.0449 20.1973C14.778 19.9043 14.3906 19.7578 13.8828 19.7578ZM13.1211 32.4629H15.1816C14.9473 32.3392 14.7552 32.1699 14.6055 31.9551C14.4622 31.7337 14.3548 31.4766 14.2832 31.1836C14.1921 31.4505 14.0488 31.6882 13.8535 31.8965C13.6647 32.0983 13.4206 32.2871 13.1211 32.4629Z" fill="white"/>
<path d="M75.12 34.02H69.04V33.4L70.92 31.92V20.86L65.58 34.02H64.48L59.18 20.72V32.16L61.28 33.22L60.88 34.02H56.2V33.4L58.08 31.92V20.2L56 19.08L56.4 18.28H60.74L65.74 30.84L70.72 18.28H75.32V18.9L73.42 20.38V32.48L75.52 33.22L75.12 34.02ZM84.4434 34.04C83.9101 34.1467 83.2701 34.2 82.5234 34.2C81.6434 34.2 80.8501 33.9733 80.1434 33.52C79.4501 33.0533 78.9034 32.4267 78.5034 31.64C78.1168 30.8533 77.9234 29.9867 77.9234 29.04C77.9234 28.0133 78.2368 27.0533 78.8634 26.16C79.4901 25.2533 80.2701 24.5333 81.2034 24C82.1501 23.4533 83.0634 23.18 83.9434 23.18C85.2101 23.18 86.1901 23.68 86.8834 24.68C87.5901 25.68 87.9434 27 87.9434 28.64H80.5434C80.6234 29.7733 80.9301 30.7 81.4634 31.42C82.0101 32.14 82.7501 32.5 83.6834 32.5C84.5501 32.5 85.7834 31.8267 87.3834 30.48L87.9834 31.24L84.4434 34.04ZM82.7834 24.86C81.3434 24.86 80.5901 25.8467 80.5234 27.82H85.2034C85.0834 27.1 84.9568 26.5533 84.8234 26.18C84.7034 25.7933 84.4834 25.48 84.1634 25.24C83.8568 24.9867 83.3968 24.86 82.7834 24.86ZM109.275 34H105.475V27.26C105.475 26.5267 105.362 26.0133 105.135 25.72C104.908 25.4267 104.502 25.28 103.915 25.28C103.502 25.28 103.095 25.36 102.695 25.52C102.295 25.6667 101.822 25.9667 101.275 26.42V32.5L103.075 33.2L102.675 34H98.875V27.26C98.875 26.5267 98.7617 26.0133 98.535 25.72C98.3083 25.4267 97.9017 25.28 97.315 25.28C96.9017 25.28 96.495 25.36 96.095 25.52C95.695 25.6667 95.2217 25.9667 94.675 26.42V32.5L96.475 33.2L96.075 34H90.495V33.38L92.275 31.98V26.32L90.495 25.28V24.66L93.915 22.98L94.555 25.54L97.215 23.32C97.495 23.2133 97.8617 23.16 98.315 23.16C99.0883 23.16 99.7283 23.3733 100.235 23.8C100.742 24.2133 101.062 24.7867 101.195 25.52L103.795 23.34C104.075 23.2333 104.442 23.18 104.895 23.18C105.802 23.18 106.522 23.46 107.055 24.02C107.588 24.5667 107.855 25.3133 107.855 26.26V32.5L109.675 33.2L109.275 34ZM117.576 23.18C118.456 23.18 119.243 23.4133 119.936 23.88C120.643 24.3333 121.19 24.9533 121.576 25.74C121.976 26.5267 122.176 27.3933 122.176 28.34C122.176 29.3667 121.863 30.3333 121.236 31.24C120.61 32.1333 119.823 32.8533 118.876 33.4C117.943 33.9333 117.036 34.2 116.156 34.2C115.276 34.2 114.483 33.9733 113.776 33.52C113.083 33.0533 112.536 32.4267 112.136 31.64C111.75 30.8533 111.556 29.9867 111.556 29.04C111.556 28.0133 111.87 27.0533 112.496 26.16C113.123 25.2533 113.903 24.5333 114.836 24C115.783 23.4533 116.696 23.18 117.576 23.18ZM116.416 24.86C114.91 24.86 114.156 25.9333 114.156 28.08C114.156 29.3467 114.43 30.4067 114.976 31.26C115.523 32.1 116.303 32.52 117.316 32.52C118.823 32.52 119.576 31.44 119.576 29.28C119.576 28.0267 119.303 26.98 118.756 26.14C118.21 25.2867 117.43 24.86 116.416 24.86ZM131.894 23.2C132.334 23.2 132.721 23.32 133.054 23.56C133.388 23.8 133.648 24.1333 133.834 24.56L132.514 26.22H131.754C131.701 25.8867 131.601 25.6533 131.454 25.52C131.321 25.3733 131.134 25.3 130.894 25.3C130.601 25.3 130.288 25.38 129.954 25.54C129.634 25.6867 129.268 25.9733 128.854 26.4V32.36L131.654 33.22L131.254 34.02H124.674V33.4L126.454 32V26.34L124.674 25.3V24.68L128.094 23L128.714 25.46L130.794 23.34C131.074 23.2333 131.441 23.18 131.894 23.18V23.2ZM145.605 24L140.545 34L136.385 39.28L135.625 38.68C136.385 37.8667 136.959 37.1533 137.345 36.54C137.745 35.9267 138.025 35.3067 138.185 34.68C138.345 34.0667 138.425 33.3333 138.425 32.48L135.905 26.38L134.045 25.3V24.68L137.465 23L138.225 26.02L140.665 31.98L143.485 26.12L140.825 24.18L141.225 23.38H145.605V24ZM161.934 17.88C162.64 17.88 163.454 17.98 164.374 18.18C165.307 18.38 165.987 18.5933 166.414 18.82V22.7H165.654C164.427 20.6067 162.8 19.56 160.774 19.56C159.894 19.56 159.087 19.82 158.354 20.34C157.634 20.8467 157.067 21.56 156.654 22.48C156.24 23.3867 156.034 24.4067 156.034 25.54C156.034 26.8467 156.234 28.04 156.634 29.12C157.047 30.2 157.667 31.0667 158.494 31.72C159.334 32.3733 160.367 32.7 161.594 32.7C162.727 32.7 164.354 31.8467 166.474 30.14L167.074 31.1L163.394 33.96C162.9 34.1333 162.42 34.2467 161.954 34.3C161.5 34.3667 161.007 34.4 160.474 34.4C159.074 34.4 157.834 34.06 156.754 33.38C155.674 32.7 154.834 31.7667 154.234 30.58C153.634 29.38 153.334 28.02 153.334 26.5C153.334 24.94 153.787 23.5 154.694 22.18C155.6 20.8467 156.727 19.8 158.074 19.04C159.42 18.2667 160.707 17.88 161.934 17.88ZM176.66 23.2C177.1 23.2 177.487 23.32 177.82 23.56C178.153 23.8 178.413 24.1333 178.6 24.56L177.28 26.22H176.52C176.467 25.8867 176.367 25.6533 176.22 25.52C176.087 25.3733 175.9 25.3 175.66 25.3C175.367 25.3 175.053 25.38 174.72 25.54C174.4 25.6867 174.033 25.9733 173.62 26.4V32.36L176.42 33.22L176.02 34.02H169.44V33.4L171.22 32V26.34L169.44 25.3V24.68L172.86 23L173.48 25.46L175.56 23.34C175.84 23.2333 176.207 23.18 176.66 23.18V23.2ZM190.036 34H186.236V32.26L183.976 34.04C183.709 34.1467 183.376 34.2 182.976 34.2C181.829 34.2 180.996 33.9133 180.476 33.34C179.969 32.7667 179.716 32.08 179.716 31.28C179.716 30.8 179.889 30.3267 180.236 29.86C180.582 29.3933 181.076 28.9533 181.716 28.54H186.236V27.26C186.236 26.3933 186.002 25.78 185.536 25.42C185.082 25.06 184.456 24.88 183.656 24.88C182.829 24.88 181.816 25.38 180.616 26.38L180.016 25.62L182.896 23.34C183.429 23.2333 184.069 23.18 184.816 23.18C186.029 23.18 186.969 23.48 187.636 24.08C188.302 24.6667 188.636 25.5267 188.636 26.66V32.5L190.436 33.2L190.036 34ZM183.616 32.5C184.429 32.5 185.302 32.1267 186.236 31.38V29.36H182.696C182.522 29.5733 182.396 29.7867 182.316 30C182.249 30.2133 182.216 30.4467 182.216 30.7C182.216 31.1933 182.342 31.62 182.596 31.98C182.849 32.3267 183.189 32.5 183.616 32.5ZM199.238 16.34C199.611 16.34 200.031 16.38 200.498 16.46C200.978 16.5267 201.318 16.6 201.518 16.68V19.76H200.758C200.424 19.2267 200.018 18.8067 199.538 18.5C199.058 18.18 198.571 18.02 198.078 18.02C197.464 18.02 196.998 18.2933 196.678 18.84C196.371 19.3867 196.217 20.1867 196.217 21.24V23.98H199.818V24.8H196.217V32.34L199.018 33.2L198.618 34H192.038V33.38L193.818 31.98V24.8H191.438V23.98H193.818V22.2C193.818 21.1733 194.098 20.2067 194.658 19.3C195.218 18.3933 195.918 17.6733 196.758 17.14C197.611 16.6067 198.438 16.34 199.238 16.34ZM206.527 34.04C206.22 34.1467 205.847 34.2 205.407 34.2C204.3 34.2 203.487 33.9133 202.967 33.34C202.46 32.7533 202.207 31.8533 202.207 30.64V24.8H200.047V23.98L203.847 19.56H204.607V23.98H208.207V24.8H204.607V30.88C204.607 31.96 205.127 32.5 206.167 32.5C206.447 32.5 206.713 32.44 206.967 32.32C207.233 32.2 207.56 31.9867 207.947 31.68L208.547 32.44L206.527 34.04Z" fill="#152742"/>
</svg>
